<svg width="24" height="24" viewBox="0 0 24 24" xmlns="http://www.w3.org/2000/svg">
  <path
    d="M4 4.75C4 4.34 4.34 4 4.75 4H10.2C10.44 4 10.66 4.11 10.8 4.31L12.06 6H19.25C19.66 6 20 6.34 20 6.75V9H18.5V7.5H11.69L10.43 5.81C10.29 5.61 10.07 5.5 9.83 5.5H5.5V18.5H10V20H4.75C4.34 20 4 19.66 4 19.25V4.75ZM13 12.75C13 12.34 13.34 12 13.75 12H19.25C19.66 12 20 12.34 20 12.75V14.5H21.25C21.66 14.5 22 14.84 22 15.25V19.25C22 19.66 21.66 20 21.25 20H15.25C14.84 20 14.5 19.66 14.5 19.25V15.25C14.5 14.84 14.84 14.5 15.25 14.5H18.5V13.5H14.5V20H13V12.75ZM16 16V18.5H20.5V16H16Z"
    fill="currentColor"
  />
</svg>
